<svg width="453" height="66" viewBox="0 0 453 66" fill="none" xmlns="http://www.w3.org/2000/svg">
<g filter="url(#filter0_f_103_6)">
<path d="M13 37.1912C56.5381 37.4845 142.367 36.3406 185.971 36.6317C186.039 36.6321 186.1 36.6599 186.147 36.7086L191.474 42.2653C191.588 42.3838 191.783 42.3625 191.868 42.2223L208.824 14.3637C208.923 14.2007 209.161 14.2045 209.255 14.3706L221.947 36.7955C222.044 36.967 222.293 36.964 222.385 36.7901L225.228 31.4649C225.323 31.287 225.579 31.2889 225.671 31.4682L235.969 51.4825C236.069 51.6778 236.355 51.6579 236.427 51.4506L247.775 18.986C247.846 18.784 248.121 18.7583 248.228 18.9437L258.665 37.0659C258.71 37.1434 258.793 37.1912 258.882 37.1912H440" stroke="url(#paint0_linear_103_6)" stroke-width="2"/>
</g>
<path d="M13 37.1912C56.5381 37.4845 142.367 36.3406 185.971 36.6317C186.039 36.6321 186.1 36.6599 186.147 36.7086L191.474 42.2653C191.588 42.3838 191.783 42.3625 191.868 42.2223L208.824 14.3637C208.923 14.2007 209.161 14.2045 209.255 14.3706L221.947 36.7955C222.044 36.967 222.293 36.964 222.385 36.7901L225.228 31.4649C225.323 31.287 225.579 31.2889 225.671 31.4682L235.969 51.4825C236.069 51.6778 236.355 51.6579 236.427 51.4506L247.775 18.986C247.846 18.784 248.121 18.7583 248.228 18.9437L258.665 37.0659C258.71 37.1434 258.793 37.1912 258.882 37.1912H440" stroke="url(#paint1_linear_103_6)" stroke-width="2"/>
<defs>
<filter id="filter0_f_103_6" x="-0.00674438" y="0.243652" width="453.007" height="65.3745" filterUnits="userSpaceOnUse" color-interpolation-filters="sRGB">
<feFlood flood-opacity="0" result="BackgroundImageFix"/>
<feBlend mode="normal" in="SourceGraphic" in2="BackgroundImageFix" result="shape"/>
<feGaussianBlur stdDeviation="6.5" result="effect1_foregroundBlur_103_6"/>
</filter>
<linearGradient id="paint0_linear_103_6" x1="382.5" y1="36.7146" x2="74.5008" y2="37.253" gradientUnits="userSpaceOnUse">
<stop stop-color="#15BFFD" stop-opacity="0"/>
<stop offset="0.245211" stop-color="#15BFFD"/>
<stop offset="0.507389" stop-color="#15BFFD"/>
<stop offset="0.838894" stop-color="#15BFFD"/>
<stop offset="1" stop-color="#15BFFD" stop-opacity="0"/>
</linearGradient>
<linearGradient id="paint1_linear_103_6" x1="382.5" y1="36.7146" x2="74.5008" y2="37.253" gradientUnits="userSpaceOnUse">
<stop stop-color="#15BFFD" stop-opacity="0"/>
<stop offset="0.245211" stop-color="#15BFFD"/>
<stop offset="0.507389" stop-color="#15BFFD"/>
<stop offset="0.838894" stop-color="#15BFFD"/>
<stop offset="1" stop-color="#15BFFD" stop-opacity="0"/>
</linearGradient>
</defs>
</svg>
