<svg width="155" height="155" viewBox="0 0 155 155" fill="none" xmlns="http://www.w3.org/2000/svg">
<path fill-rule="evenodd" clip-rule="evenodd" d="M30.3715 104.222C45.4102 130.27 78.7425 139.18 104.821 124.123C130.9 109.066 139.85 75.7448 124.811 49.697C109.773 23.6493 76.4403 14.7393 50.3615 29.7959C24.2827 44.8525 15.3329 78.1741 30.3715 104.222ZM29.8094 104.546C45.0271 130.904 78.7562 139.92 105.145 124.684C131.535 109.449 140.591 75.7303 125.373 49.3725C110.156 23.0147 76.4266 13.9986 50.0373 29.2344C23.6481 44.4703 14.5917 78.1886 29.8094 104.546Z" fill="#ACDDF0"/>
<path d="M63.7784 43.5644L59.5364 40.6765L58.2836 41.2831L60.2215 45.2868L58.5798 46.0818L53.7351 36.0726L57.1912 34.399C57.9593 34.0271 58.6723 33.8477 59.3305 33.8609C59.9982 33.8694 60.5709 34.0365 61.0485 34.3622C61.5357 34.6833 61.9141 35.1223 62.1837 35.6791C62.4997 36.332 62.5958 37.0203 62.472 37.7439C62.3532 38.4533 61.9467 39.0945 61.2524 39.6678L65.7368 42.6161L63.7784 43.5644ZM57.6493 39.9726L59.4637 39.094C60.0781 38.7964 60.4646 38.4197 60.6231 37.9637C60.7912 37.503 60.7498 37.0135 60.4988 36.495C60.2479 35.9765 59.8991 35.6477 59.4525 35.5084C59.0012 35.3595 58.4635 35.4362 57.8395 35.7384L56.0251 36.617L57.6493 39.9726Z" fill="#9BA0B7"/>
<path d="M68.9163 37.2288C68.8257 36.3481 68.9258 35.5495 69.2167 34.833C69.5182 34.1153 69.9628 33.5384 70.5506 33.102C71.1479 32.654 71.8284 32.3903 72.5923 32.3111C73.2819 32.2395 73.8955 32.3153 74.4332 32.5384C74.9803 32.7497 75.4284 33.041 75.7776 33.4123L75.6466 32.139L77.4767 31.9491L78.3787 40.7191L76.5486 40.909L76.4144 39.6039C76.1493 40.0496 75.7657 40.4379 75.2636 40.7689C74.7615 41.0998 74.1709 41.3005 73.4919 41.3709C72.7387 41.4491 72.0294 41.3296 71.3642 41.0126C70.6978 40.6849 70.1435 40.1955 69.7013 39.5443C69.2685 38.8814 69.0069 38.1096 68.9163 37.2288ZM76.0968 36.516C76.0346 35.9112 75.8533 35.3992 75.5528 34.9799C75.2629 34.5596 74.9044 34.2536 74.4773 34.062C74.0501 33.8704 73.6031 33.7988 73.1363 33.8472C72.6695 33.8956 72.2465 34.0575 71.8674 34.3328C71.4871 34.5974 71.1926 34.9658 70.9838 35.4379C70.7846 35.8982 70.716 36.4308 70.7782 37.0357C70.8404 37.6405 71.017 38.1584 71.308 38.5893C71.6095 39.0192 71.9744 39.3352 72.4027 39.5375C72.8404 39.728 73.2874 39.7996 73.7436 39.7523C74.2104 39.7038 74.6334 39.542 75.0126 39.2667C75.3917 38.9914 75.6804 38.6183 75.8786 38.1473C76.0863 37.6646 76.159 37.1209 76.0968 36.516Z" fill="#9BA0B7"/>
<path d="M86.5415 34.4323C86.8965 34.05 87.3136 33.7847 87.7928 33.6364C88.2847 33.4798 88.828 33.4651 89.4225 33.5923L89.0253 35.4381L88.5716 35.3411C87.8728 35.1916 87.3027 35.2551 86.8614 35.5315C86.4304 35.8102 86.1208 36.3876 85.9323 37.2636L84.9562 41.8L83.1727 41.4185L85.0271 32.7993L86.8107 33.1808L86.5415 34.4323Z" fill="#9BA0B7"/>
<path d="M101.827 44.0682C101.664 44.356 101.498 44.6055 101.33 44.8166L95.4637 41.5058C95.1634 42.1447 95.1126 42.7652 95.3112 43.3673C95.5098 43.9693 95.9063 44.4381 96.5008 44.7737C97.3554 45.256 98.1614 45.2394 98.9188 44.7237L100.633 45.691C100.001 46.2655 99.2502 46.6072 98.3797 46.7161C97.5238 46.821 96.6454 46.6191 95.7444 46.1106C95.0105 45.6964 94.443 45.1617 94.0416 44.5064C93.6548 43.8472 93.4624 43.1261 93.4641 42.3431C93.4805 41.5562 93.7119 40.7681 94.1584 39.979C94.6049 39.1898 95.1542 38.5873 95.8062 38.1714C96.4727 37.7514 97.1859 37.5415 97.9456 37.5416C98.7147 37.547 99.4754 37.762 100.228 38.1866C100.952 38.5956 101.509 39.1178 101.897 39.7533C102.285 40.3887 102.474 41.0834 102.464 41.8373C102.459 42.5818 102.247 43.3255 101.827 44.0682ZM100.452 42.631C100.774 42.0409 100.83 41.4541 100.621 40.8706C100.412 40.2871 100.005 39.825 99.4017 39.4842C98.8537 39.1749 98.2848 39.0865 97.695 39.2191C97.1105 39.3424 96.613 39.6802 96.2025 40.2324L100.452 42.631Z" fill="#9BA0B7"/>
<path d="M111.665 64.0529L112.201 62.1822C111.476 61.9745 110.844 61.6602 110.306 61.2392C109.777 60.813 109.323 60.2595 108.945 59.5786C108.563 58.8883 108.345 58.2101 108.292 57.5438C108.24 56.8776 108.358 56.2758 108.645 55.7382C108.942 55.1955 109.388 54.7586 109.985 54.4274C110.657 54.0549 111.36 53.9149 112.094 54.0076C112.838 54.0951 113.574 54.4313 114.3 55.0161C114.477 54.5644 114.674 54.2051 114.892 53.9379C115.119 53.6656 115.405 53.4337 115.75 53.2422C116.179 53.0042 116.621 52.8993 117.076 52.9276C117.536 52.9652 117.978 53.1348 118.401 53.4366C118.825 53.7384 119.186 54.1597 119.487 54.7008C119.792 55.2511 119.943 55.777 119.941 56.2784C119.953 56.784 119.829 57.231 119.568 57.6194C119.313 58.0171 118.952 58.3214 118.483 58.5325L117.598 56.9374C117.949 56.7553 118.168 56.5239 118.256 56.2432C118.354 55.9573 118.317 55.6604 118.147 55.3526C117.976 55.0448 117.743 54.8447 117.448 54.7523C117.167 54.6641 116.896 54.6924 116.635 54.8373C116.383 54.977 116.17 55.1866 115.996 55.4663C115.836 55.75 115.661 56.1825 115.471 56.7636L114.339 60.7584L116.527 60.8437L117.481 62.5647L114.628 62.5007L113.86 62.4692L112.821 66.1377L111.665 64.0529ZM110.303 58.8257C110.789 59.7025 111.577 60.2775 112.668 60.5507L113.829 56.5403C112.78 55.6828 111.812 55.4999 110.926 55.9914C110.45 56.2553 110.148 56.655 110.018 57.1906C109.897 57.721 109.992 58.266 110.303 58.8257Z" fill="#9BA0B7"/>
<path d="M123.503 77.9551L120.241 77.8514L120.114 81.6895L118.627 81.6423L118.753 77.8042L115.347 77.696L115.205 82.0138L113.718 81.9666L113.92 75.8256L125.05 76.1792L124.848 82.3202L123.361 82.2729L123.503 77.9551Z" fill="#9BA0B7"/>
<path d="M115.532 92.2598L110.364 93.4243L111.066 91.4833L114.529 90.7074L112.324 88.0077L112.972 86.2172L116.082 90.3657L121.265 89.2066L120.563 91.1476L117.1 91.9235L119.305 94.6233L118.657 96.4138L115.532 92.2598Z" fill="#9BA0B7"/>
<path d="M111.748 99.8728C112.458 100.437 112.967 101.073 113.275 101.782C113.585 102.505 113.684 103.238 113.571 103.979C113.458 104.72 113.139 105.421 112.614 106.08C111.949 106.914 111.201 107.444 110.368 107.667C109.537 107.906 108.678 107.829 107.79 107.437L109.016 105.898C109.458 106.045 109.885 106.057 110.296 105.934C110.708 105.811 111.079 105.541 111.412 105.124C111.877 104.54 112.04 103.907 111.902 103.224C111.765 102.557 111.325 101.928 110.582 101.337C109.839 100.747 109.122 100.456 108.432 100.467C107.736 100.485 107.155 100.787 106.69 101.371C106.032 102.197 105.96 103.032 106.474 103.877L105.248 105.416C104.706 104.658 104.446 103.838 104.467 102.956C104.496 102.08 104.836 101.233 105.488 100.415C106.012 99.7557 106.624 99.2877 107.321 99.011C108.027 98.7409 108.764 98.6722 109.531 98.8049C110.299 98.9526 111.038 99.3086 111.748 99.8728Z" fill="#9BA0B7"/>
<path d="M104.693 117.261L97.8304 107.613L99.3171 106.556L106.18 116.204L104.693 117.261Z" fill="#9BA0B7"/>
<path d="M87.7913 121.702L84.9658 113.351L86.6935 112.766L87.0268 113.751C87.1833 113.315 87.4497 112.921 87.8259 112.568C88.1954 112.229 88.6276 111.976 89.1227 111.808C89.7794 111.586 90.4166 111.522 91.0343 111.617C91.6418 111.716 92.1878 111.981 92.6721 112.414C93.1462 112.851 93.5115 113.448 93.7679 114.206L95.4293 119.116L93.7168 119.696L92.1426 115.043C91.8896 114.295 91.5078 113.783 90.9973 113.505C90.4901 113.237 89.9132 113.213 89.2666 113.432C88.62 113.651 88.1765 114.021 87.936 114.541C87.6888 115.075 87.6917 115.716 87.9447 116.464L89.5189 121.117L87.7913 121.702Z" fill="#9BA0B7"/>
<path d="M76.5693 113.756C77.2625 113.763 77.8851 113.892 78.4371 114.143C78.9782 114.404 79.4065 114.749 79.7218 115.179C80.037 115.62 80.2024 116.107 80.2179 116.64L78.33 116.622C78.3021 116.248 78.1296 115.932 77.8124 115.673C77.4844 115.424 77.0751 115.297 76.5845 115.292C76.0725 115.287 75.6769 115.379 75.3975 115.569C75.1073 115.768 74.9605 116.023 74.9571 116.332C74.9535 116.663 75.1108 116.91 75.4291 117.073C75.7366 117.236 76.2307 117.417 76.9112 117.616C77.5705 117.804 78.1072 117.985 78.5213 118.16C78.9354 118.334 79.2951 118.599 79.6006 118.954C79.8954 119.309 80.0397 119.775 80.0334 120.351C80.0283 120.82 79.885 121.245 79.6035 121.627C79.3218 122.019 78.9238 122.324 78.4094 122.543C77.8844 122.762 77.2859 122.868 76.6139 122.861C75.6114 122.851 74.8089 122.587 74.2065 122.069C73.5934 121.562 73.2702 120.871 73.2371 119.996L75.061 120.014C75.0887 120.409 75.2452 120.725 75.5306 120.962C75.816 121.2 76.2041 121.321 76.6947 121.326C77.1746 121.331 77.5436 121.244 77.8016 121.065C78.0595 120.886 78.1901 120.647 78.1934 120.349C78.1959 120.114 78.1128 119.916 77.9439 119.754C77.7749 119.592 77.5684 119.462 77.3241 119.364C77.0797 119.276 76.7183 119.161 76.2399 119.017C75.6018 118.84 75.0811 118.659 74.6778 118.474C74.2637 118.299 73.9091 118.04 73.6142 117.695C73.3193 117.351 73.1696 116.896 73.1651 116.331C73.1706 115.829 73.3141 115.383 73.5957 114.991C73.8773 114.599 74.2754 114.293 74.7898 114.075C75.2935 113.855 75.8867 113.749 76.5693 113.756Z" fill="#9BA0B7"/>
<path d="M64.6052 122.119C64.9231 122.21 65.1586 122.394 65.312 122.671C65.4653 122.948 65.4962 123.245 65.4047 123.563C65.3132 123.881 65.1288 124.116 64.8515 124.27C64.5742 124.423 64.2767 124.455 63.9588 124.364C63.6512 124.275 63.4207 124.093 63.2674 123.816C63.1141 123.539 63.0832 123.242 63.1747 122.924C63.2662 122.606 63.4506 122.37 63.7279 122.217C64.0052 122.063 64.2976 122.031 64.6052 122.119ZM64.0671 120.749L66.5066 112.277L68.2599 112.78L65.8204 121.252L64.0671 120.749Z" fill="#9BA0B7"/>
<path d="M56.9526 109.643L51.0164 114.401L49.3761 113.373L56.9124 107.691L58.7561 108.847L56.9 118.089L55.2461 117.052L56.9526 109.643Z" fill="#9BA0B7"/>
<path d="M42.2088 99.3229C42.4672 99.1166 42.714 98.947 42.949 98.814L47.1525 104.077C47.6695 103.597 47.9483 103.04 47.9889 102.407C48.0295 101.774 47.8368 101.191 47.4108 100.657C46.7984 99.8906 46.0448 99.605 45.1499 99.8006L43.9218 98.2629C44.7218 97.9656 45.5458 97.929 46.3936 98.153C47.2265 98.3754 47.9657 98.8908 48.6114 99.6993C49.1372 100.358 49.4639 101.066 49.5915 101.824C49.704 102.58 49.6133 103.321 49.3194 104.047C49.0104 104.771 48.5016 105.416 47.7929 105.982C47.0842 106.547 46.35 106.901 45.59 107.044C44.8151 107.185 44.0755 107.113 43.371 106.829C42.6598 106.537 42.0346 106.053 41.4955 105.378C40.9763 104.728 40.6554 104.036 40.5328 103.301C40.4103 102.566 40.4943 101.851 40.7849 101.155C41.0672 100.466 41.5418 99.8552 42.2088 99.3229ZM42.9467 101.17C42.4281 101.597 42.1568 102.121 42.1329 102.741C42.109 103.36 42.3133 103.941 42.746 104.483C43.1387 104.974 43.6333 105.269 44.2296 105.366C44.8177 105.47 45.4051 105.342 45.992 104.983L42.9467 101.17Z" fill="#9BA0B7"/>
<path d="M36.816 82.7012L40.7332 78.1666L41.0088 80.6152L37.6063 84.2863L41.374 83.8588L41.578 85.6715L29.8139 87.0062L29.6098 85.1935L36.4457 84.418L32.2565 81.6726L31.9737 79.1604L36.816 82.7012Z" fill="#9BA0B7"/>
<path d="M34.9889 66.3946L34.6073 67.9815L41.7338 69.6863L41.3036 71.4754L34.177 69.7706L33.9338 70.7818L32.4867 70.4356L32.7299 69.4244L32.1231 69.2792C31.1376 69.0435 30.4842 68.613 30.1628 67.9877C29.8336 67.3495 29.8037 66.4704 30.073 65.3503L31.5512 65.7039C31.4216 66.2432 31.4342 66.6466 31.5893 66.914C31.7341 67.179 32.0554 67.371 32.5533 67.4901L33.1602 67.6353L33.5418 66.0485L34.9889 66.3946Z" fill="#9BA0B7"/>
<path d="M39.5629 52.256C39.9143 51.6832 40.3494 51.2491 40.8684 50.9539C41.3929 50.6496 41.9743 50.5176 42.6126 50.5581C43.2565 50.5895 43.9197 50.814 44.602 51.2315L49.0372 53.9457L48.0919 55.487L43.8887 52.9148C43.2154 52.5028 42.5982 52.3564 42.0371 52.4757C41.4668 52.5895 41.0032 52.9373 40.6463 53.5193C40.2893 54.1012 40.1869 54.6763 40.3388 55.2446C40.4873 55.7981 40.8981 56.2809 41.5714 56.6929L45.7746 59.2651L44.8209 60.82L34.7223 54.6401L35.676 53.0851L39.1286 55.198C38.9719 54.7395 38.9299 54.2573 39.0024 53.7514C39.0805 53.2364 39.2674 52.738 39.5629 52.256Z" fill="#9BA0B7"/>
<ellipse cx="77.9965" cy="77.6618" rx="29.1749" ry="29.2097" transform="rotate(60 77.9965 77.6618)" fill="#4F96B0"/>
<path d="M96.266 67.1137L85.0586 79.0937L87.3162 93.804L75.7055 84.4937L59.7269 88.2096L70.9343 76.2297L68.6767 61.5194L80.2874 70.8297L96.266 67.1137Z" fill="white"/>
</svg>
