<svg width="427" height="40" viewBox="0 0 427 40" fill="none" xmlns="http://www.w3.org/2000/svg">
<path d="M0 24.1912C43.5381 24.4845 129.367 23.3406 172.971 23.6317C173.039 23.6321 173.1 23.6599 173.147 23.7086L178.474 29.2653C178.588 29.3838 178.783 29.3625 178.868 29.2223L195.824 1.36374C195.923 1.20073 196.161 1.2045 196.255 1.37057L208.947 23.7955C209.044 23.967 209.293 23.964 209.385 23.7901L212.228 18.4649C212.323 18.287 212.579 18.2889 212.671 18.4682L222.969 38.4825C223.069 38.6778 223.355 38.6579 223.427 38.4506L234.775 5.98597C234.846 5.78397 235.121 5.75826 235.228 5.94369L245.665 24.0659C245.71 24.1434 245.793 24.1912 245.882 24.1912H427" stroke="url(#paint0_linear_1_119)" stroke-width="2"/>
<defs>
<linearGradient id="paint0_linear_1_119" x1="369.5" y1="23.7146" x2="61.5008" y2="24.253" gradientUnits="userSpaceOnUse">
<stop stop-color="#15BFFD" stop-opacity="0"/>
<stop offset="0.245211" stop-color="#15BFFD"/>
<stop offset="0.507389" stop-color="#15BFFD"/>
<stop offset="0.838894" stop-color="#15BFFD"/>
<stop offset="1" stop-color="#15BFFD" stop-opacity="0"/>
</linearGradient>
</defs>
</svg>
