<svg width="191" height="48" viewBox="0 0 191 48" fill="none" xmlns="http://www.w3.org/2000/svg">
<path fill-rule="evenodd" clip-rule="evenodd" d="M43.1111 3.77783H9.33333L0 28.2223H10.5293L15.1111 16.2223H38.3596L43.1111 3.77783Z" fill="white"/>
<path d="M18.2222 19.7778H52L42.6667 44.2223H8.88889L18.2222 19.7778Z" fill="#15BFFD"/>
<path d="M63.632 35V14.392H68.048L76.816 26.712V14.392H82V35H77.552L68.784 22.712V35H63.632ZM85.257 35V14.392H100.233V18.36H90.409V22.68H99.049V26.712H90.409V35H85.257ZM106.994 35V18.36H100.946V14.392H118.194V18.36H112.146V35H106.994Z" fill="white"/>
<path d="M135.382 35.32C132.673 35.32 130.55 34.6587 129.014 33.336C127.499 32.0133 126.742 30.04 126.742 27.416C126.742 24.7493 127.531 22.7653 129.11 21.464C130.71 20.1627 132.833 19.512 135.478 19.512C136.587 19.512 137.547 19.5973 138.358 19.768C139.19 19.9173 139.99 20.1733 140.758 20.536V24.184C139.563 23.608 138.166 23.32 136.566 23.32C135.073 23.32 133.931 23.6187 133.142 24.216C132.374 24.8133 131.99 25.88 131.99 27.416C131.99 28.8453 132.353 29.8907 133.078 30.552C133.803 31.192 134.955 31.512 136.534 31.512C138.091 31.512 139.51 31.192 140.79 30.552V34.36C140.022 34.7013 139.19 34.9467 138.294 35.096C137.419 35.2453 136.449 35.32 135.382 35.32ZM151.317 35.32C148.395 35.32 146.24 34.648 144.853 33.304C143.467 31.9387 142.773 29.976 142.773 27.416C142.773 24.8773 143.467 22.9253 144.853 21.56C146.261 20.1947 148.416 19.512 151.317 19.512C154.24 19.512 156.395 20.1947 157.781 21.56C159.189 22.9253 159.893 24.8773 159.893 27.416C159.893 29.976 159.2 31.9387 157.813 33.304C156.427 34.648 154.261 35.32 151.317 35.32ZM151.317 31.288C152.512 31.288 153.365 30.9893 153.877 30.392C154.389 29.7947 154.645 28.8027 154.645 27.416C154.645 26.0293 154.389 25.0373 153.877 24.44C153.365 23.8427 152.512 23.544 151.317 23.544C150.144 23.544 149.301 23.8427 148.789 24.44C148.277 25.0373 148.021 26.0293 148.021 27.416C148.021 28.8027 148.277 29.7947 148.789 30.392C149.301 30.9893 150.144 31.288 151.317 31.288ZM162.507 35V19.832H167.403L167.563 21.24C168.224 20.8347 169.046 20.472 170.027 20.152C171.008 19.8107 171.99 19.5973 172.971 19.512V23.384C172.416 23.448 171.798 23.5547 171.115 23.704C170.454 23.832 169.814 23.992 169.195 24.184C168.598 24.376 168.086 24.5787 167.659 24.792V35H162.507ZM182.416 35.32C179.771 35.32 177.648 34.6693 176.048 33.368C174.448 32.0453 173.648 30.0613 173.648 27.416C173.648 25.0053 174.31 23.0853 175.632 21.656C176.955 20.2267 178.939 19.512 181.584 19.512C183.995 19.512 185.862 20.1307 187.184 21.368C188.507 22.6053 189.168 24.2693 189.168 26.36V29.08H178.416C178.651 30.0827 179.195 30.7867 180.048 31.192C180.923 31.576 182.107 31.768 183.6 31.768C184.432 31.768 185.275 31.6933 186.128 31.544C187.003 31.3947 187.728 31.2027 188.304 30.968V34.328C187.579 34.6693 186.715 34.9147 185.712 35.064C184.71 35.2347 183.611 35.32 182.416 35.32ZM178.416 26.104H184.688V25.432C184.688 24.6853 184.464 24.0987 184.016 23.672C183.568 23.224 182.811 23 181.744 23C180.507 23 179.643 23.256 179.152 23.768C178.662 24.2587 178.416 25.0373 178.416 26.104Z" fill="#15BFFD"/>
</svg>
